<svg width="112px" height="79px" viewBox="0 0 112 79" version="1.1" xmlns="http://www.w3.org/2000/svg" xmlns:xlink="http://www.w3.org/1999/xlink">
    <defs>
        <polygon id="path-1" points="0.570432414 0.511007918 30.8943823 0.511007918 30.8943823 11 0.570432414 11"></polygon>
    </defs>
    <g id="V2" stroke="none" stroke-width="1" fill="none" fill-rule="evenodd">
        <g id="Home-3.1" transform="translate(-487.000000, -2384.000000)">
            <g id="spinduliai" transform="translate(543.500000, 2422.000000) scale(-1, 1) rotate(-9.000000) translate(-543.500000, -2422.000000) translate(493.000000, 2377.000000)">
                <path d="M59.0837482,21.5091959 C51.1135204,27.2881709 43.1432926,33.0686819 35.1730648,38.8491928 C32.3809616,40.873562 35.0899849,45.5405163 37.9162518,43.4908041 C45.8864796,37.7110611 53.8567074,31.9297822 61.8269352,26.1508072 C64.6190384,24.126438 61.9100151,19.4594837 59.0837482,21.5091959" id="Fill-1" fill="#FFDD00"></path>
                <path d="M75.8152351,47.3080362 C67.90235,51.145728 59.6160372,53.9288809 50.9807192,55.7420423 C47.5127264,56.4706888 48.9796511,61.6580675 52.4460683,60.9301897 C61.5454135,59.0194142 70.2666041,55.9949164 78.5986105,51.9535418 C81.7766849,50.4124699 78.986219,45.7700387 75.8152351,47.3080362" id="Fill-3" fill="#FFDD00"></path>
                <g id="Group-7" transform="translate(70.000000, 79.000000)">
                    <mask id="mask-2" fill="white">
                        <use xlink:href="#path-1"></use>
                    </mask>
                    <g id="Clip-6"></g>
                    <path d="M27.5848075,0.671942857 C19.6643075,3.40858571 11.5423075,5.04287143 3.1831575,5.49544286 C-0.2896175,5.68244286 -0.3113175,11.1840143 3.1831575,10.9954429 C12.0135075,10.5185143 20.6547575,8.8693 29.0270825,5.97551429 C32.3130825,4.84015714 30.9018075,-0.474414286 27.5848075,0.671942857" id="Fill-5" fill="#FFDD00" mask="url(#mask-2)"></path>
                </g>
                <path d="M27.9047624,5.233466 C23.7562846,11.4980823 19.6078067,17.7626987 15.4585618,24.027315 C13.5316061,26.9378806 18.1810004,29.6577165 20.0956825,26.766534 L32.541116,7.972685 C34.4688388,5.06211944 29.8194445,2.34228354 27.9047624,5.233466" id="Fill-8" fill="#FFDD00"></path>
                <path d="M5.10704229,1.31175547 L0.35286232,9.99672133 C-1.2907063,13.0003609 3.24938909,15.6917559 4.89295771,12.6881164 C6.47793476,9.79262006 8.06291181,6.8978853 9.64713768,4.00238896 C11.2907063,1.00027256 6.75061091,-1.69188408 5.10704229,1.31175547" id="Fill-10" fill="#FFDD00"></path>
            </g>
        </g>
    </g>
</svg>