<?xml version="1.0" encoding="UTF-8"?>
<svg width="274px" height="81px" viewBox="0 0 274 81" version="1.1" xmlns="http://www.w3.org/2000/svg" xmlns:xlink="http://www.w3.org/1999/xlink">
    <!-- Generator: Sketch 63.1 (92452) - https://sketch.com -->
    <title>mygelis</title>
    <desc>Created with Sketch.</desc>
    <defs>
        <polygon id="path-1" points="0.130184312 0.0182890305 275.130184 0.0182890305 275.130184 70.018289 0.130184312 70.018289"></polygon>
    </defs>
    <g id="V2" stroke="none" stroke-width="1" fill="none" fill-rule="evenodd">
        <g id="Home-3.1" transform="translate(-936.000000, -634.000000)">
            <g id="mygelis" transform="translate(1073.000000, 675.500000) rotate(-3.000000) translate(-1073.000000, -675.500000) translate(935.000000, 640.000000)">
                <mask id="mask-2" fill="white">
                    <use xlink:href="#path-1"></use>
                </mask>
                <g id="Clip-2"></g>
                <path d="M262.98166,21.1051737 C258.597278,20.10555 254.132831,19.3644371 249.61878,18.8225166 C252.730838,16.8174106 254.689799,14.0697272 254.689799,11.0730532 C254.689799,5.07384656 246.873101,0.0383797013 237.608287,0.028859476 C174.931111,-0.0414437262 112.253065,0.239036758 49.5819809,0.867371628 C42.3335645,0.941336455 35.9519295,3.99586413 33.5395618,8.22430881 L31.7920747,8.22430881 C22.5620706,8.22430881 14.7105623,13.3015182 14.7105623,19.2685025 C14.7105623,21.2201487 15.5521061,23.068537 16.9915203,24.6789198 C11.2425662,26.4291766 7.10620855,29.7663817 7.10620855,34.4203072 C7.10620855,36.6055651 7.98517368,38.4634737 9.47506308,40.0079472 C6.89560502,41.8599971 5.30041385,44.2744727 5.30041385,47.0997827 C5.30041385,47.8225875 5.41267771,48.5117053 5.60239494,49.1722625 C2.26667876,51.1414845 0.130184312,53.9126024 0.130184312,57.1238476 C0.130184312,63.3522719 7.96080633,67.8670557 17.2108265,68.167309 C91.9115491,70.5913048 166.761087,70.6352443 241.467031,68.2947335 C250.683981,68.0069298 258.548543,63.4255044 258.548543,57.2505398 C258.548543,55.7924807 258.043791,54.3476034 257.143939,53.0052517 C260.142864,50.5812558 261.641456,47.3143539 260.952208,44.3535638 C260.841685,43.8768203 260.65893,43.3971474 260.441364,42.9189391 C261.289,42.7512367 262.138376,42.5828019 262.98166,42.4041146 C279.450508,38.9153182 278.906594,24.7382381 262.98166,21.1051737" id="Fill-1" fill="#FFDD00" mask="url(#mask-2)"></path>
            </g>
        </g>
    </g>
</svg>